<?xml version="1.0" encoding="UTF-8"?>
<svg width="100" height="100" viewBox="0 0 100 100" xmlns="http://www.w3.org/2000/svg">
  <defs>
    <linearGradient id="creativityGrad" x1="0%" y1="0%" x2="100%" y2="100%">
      <stop offset="0%" style="stop-color:#10B981;stop-opacity:1" />
      <stop offset="50%" style="stop-color:#059669;stop-opacity:1" />
      <stop offset="100%" style="stop-color:#047857;stop-opacity:1" />
    </linearGradient>
    <linearGradient id="brainGrad" x1="0%" y1="0%" x2="100%" y2="100%">
      <stop offset="0%" style="stop-color:#8B5CF6;stop-opacity:1" />
      <stop offset="100%" style="stop-color:#7C3AED;stop-opacity:1" />
    </linearGradient>
    <filter id="glow">
      <feGaussianBlur stdDeviation="2" result="coloredBlur"/>
      <feMerge> 
        <feMergeNode in="coloredBlur"/>
        <feMergeNode in="SourceGraphic"/>
      </feMerge>
    </filter>
  </defs>
  
  <circle cx="50" cy="50" r="45" fill="url(#creativityGrad)" opacity="0.1"/>
  
  <path d="M30 35 C25 30, 25 25, 30 22 C35 20, 40 22, 42 25 C45 20, 50 20, 55 22 C60 20, 65 22, 68 25 C70 22, 75 25, 75 30 C75 35, 72 40, 70 45 C68 50, 65 52, 60 52 C55 52, 50 50, 45 52 C40 52, 35 50, 32 45 C30 40, 30 35, 30 35 Z" 
        fill="url(#brainGrad)" opacity="0.8" filter="url(#glow)"/>
  
  <path d="M35 30 Q40 32, 45 30 Q50 28, 55 30 Q60 32, 65 30" 
        fill="none" stroke="#FFFFFF" stroke-width="1" opacity="0.6"/>
  <path d="M32 38 Q37 40, 42 38 Q47 36, 52 38 Q57 40, 62 38" 
        fill="none" stroke="#FFFFFF" stroke-width="1" opacity="0.6"/>
  <path d="M35 45 Q40 47, 45 45 Q50 43, 55 45" 
        fill="none" stroke="#FFFFFF" stroke-width="1" opacity="0.6"/>
  
  <g transform="translate(25,20)">
    <circle cx="0" cy="0" r="4" fill="#F59E0B" opacity="0.8" filter="url(#glow)"/>
    <circle cx="-2" cy="-6" r="2" fill="#F59E0B" opacity="0.6"/>
    <circle cx="4" cy="-8" r="1.5" fill="#F59E0B" opacity="0.4"/>
  </g>
  
  <g transform="translate(75,25)">
    <circle cx="0" cy="0" r="3" fill="#F59E0B" opacity="0.8" filter="url(#glow)"/>
    <circle cx="3" cy="-5" r="1.5" fill="#F59E0B" opacity="0.6"/>
    <circle cx="-3" cy="-6" r="1" fill="#F59E0B" opacity="0.4"/>
  </g>
  
  <path d="M30 55 Q35 65, 45 70 Q55 75, 70 70" 
        fill="none" stroke="url(#creativityGrad)" stroke-width="2" opacity="0.7" stroke-dasharray="4,2"/>
  
  <g transform="translate(50,70)">
    <path d="M-8,-8 L-2,-8 C-2,-5 0,-5 0,-8 L8,-8 L8,0 C5,0 5,2 8,2 L8,8 L0,8 C0,5 -2,5 -2,8 L-8,8 L-8,0 C-5,0 -5,-2 -8,-2 Z" 
          fill="url(#creativityGrad)" opacity="0.8" filter="url(#glow)"/>
    
    <g transform="translate(12,0)">
      <path d="M-8,-8 L0,-8 C0,-5 2,-5 2,-8 L8,-8 L8,-2 C5,-2 5,0 8,0 L8,8 L2,8 C2,5 0,5 0,8 L-8,8 L-8,0 C-5,0 -5,-2 -8,-2 Z" 
            fill="url(#creativityGrad)" opacity="0.6"/>
    </g>
  </g>
  
  <g transform="translate(20,70) scale(0.8)">
    <rect x="-6" y="-6" width="12" height="12" rx="2" fill="none" stroke="url(#creativityGrad)" stroke-width="1.5"/>
    <text x="0" y="2" text-anchor="middle" font-family="monospace" font-size="6" fill="url(#creativityGrad)">AI</text>
  </g>
  
  <path d="M15 50 L25 50 M20 45 L25 50 L20 55" 
        fill="none" stroke="url(#creativityGrad)" stroke-width="2" opacity="0.7"/>
  
  <circle cx="40" cy="25" r="1" fill="#F59E0B" opacity="0.8">
    <animate attributeName="opacity" values="0.8;0.3;0.8" dur="2s" repeatCount="indefinite"/>
  </circle>
  <circle cx="60" cy="35" r="1" fill="#F59E0B" opacity="0.6">
    <animate attributeName="opacity" values="0.6;0.2;0.6" dur="2.5s" repeatCount="indefinite"/>
  </circle>
  <circle cx="45" cy="40" r="1" fill="#F59E0B" opacity="0.7">
    <animate attributeName="opacity" values="0.7;0.2;0.7" dur="1.8s" repeatCount="indefinite"/>
  </circle>
</svg>
